<?xml version="1.0" encoding="UTF-8" standalone="no"?>
<!DOCTYPE svg PUBLIC "-//W3C//DTD SVG 1.1//EN"
 "http://www.w3.org/Graphics/SVG/1.1/DTD/svg11.dtd">
<!-- Generated by graphviz version 5.0.0 (20220707.1540)
 -->
<!-- Title: dependencies Pages: 1 -->
<svg width="2622pt" height="247pt"
 viewBox="0.00 0.00 2622.00 246.80" xmlns="http://www.w3.org/2000/svg" xmlns:xlink="http://www.w3.org/1999/xlink">
<g id="graph0" class="graph" transform="scale(1 1) rotate(0) translate(4 242.8)">
<title>dependencies</title>
<polygon fill="white" stroke="transparent" points="-4,4 -4,-242.8 2618,-242.8 2618,4 -4,4"/>
<text text-anchor="middle" x="1307" y="-8.2" font-family="sans-serif" font-size="14.00">dependencies</text>
<g id="clust1" class="cluster">
<title>cluster_AppModule</title>
<polygon fill="none" stroke="black" stroke-dasharray="1,5" points="8,-32.8 8,-230.8 2606,-230.8 2606,-32.8 8,-32.8"/>
</g>
<g id="clust2" class="cluster">
<title>cluster_AppModule_declarations</title>
<polygon fill="none" stroke="black" points="324,-40.8 324,-92.8 2598,-92.8 2598,-40.8 324,-40.8"/>
</g>
<g id="clust20" class="cluster">
<title>cluster_AppModule_providers</title>
<polygon fill="none" stroke="black" points="182,-40.8 182,-92.8 316,-92.8 316,-40.8 182,-40.8"/>
</g>
<g id="clust19" class="cluster">
<title>cluster_AppModule_bootstrap</title>
<polygon fill="none" stroke="black" points="1263,-170.8 1263,-222.8 1387,-222.8 1387,-170.8 1263,-170.8"/>
</g>
<g id="clust17" class="cluster">
<title>cluster_AppModule_imports</title>
<polygon fill="none" stroke="black" points="16,-40.8 16,-92.8 174,-92.8 174,-40.8 16,-40.8"/>
</g>
<!-- AppComponent -->
<g id="node1" class="node">
<title>AppComponent</title>
<polygon fill="#ffffb3" stroke="black" points="2589.94,-84.8 2484.06,-84.8 2484.06,-48.8 2589.94,-48.8 2589.94,-84.8"/>
<text text-anchor="middle" x="2537" y="-62.6" font-family="Times,serif" font-size="14.00">AppComponent</text>
</g>
<!-- AppModule -->
<g id="node15" class="node">
<title>AppModule</title>
<polygon fill="#8dd3c7" stroke="black" points="1366.66,-149.8 1363.66,-153.8 1342.66,-153.8 1339.66,-149.8 1283.34,-149.8 1283.34,-113.8 1366.66,-113.8 1366.66,-149.8"/>
<text text-anchor="middle" x="1325" y="-127.6" font-family="Times,serif" font-size="14.00">AppModule</text>
</g>
<!-- AppComponent&#45;&gt;AppModule -->
<g id="edge1" class="edge">
<title>AppComponent&#45;&gt;AppModule</title>
<path fill="none" stroke="black" d="M2537,-85.12C2537,-108.46 2537,-145.8 2537,-145.8 2537,-145.8 1376.72,-145.8 1376.72,-145.8"/>
<polygon fill="black" stroke="black" points="1376.72,-142.3 1366.72,-145.8 1376.72,-149.3 1376.72,-142.3"/>
</g>
<!-- LandingPageComponent -->
<g id="node2" class="node">
<title>LandingPageComponent</title>
<polygon fill="#ffffb3" stroke="black" points="2466.7,-84.8 2311.3,-84.8 2311.3,-48.8 2466.7,-48.8 2466.7,-84.8"/>
<text text-anchor="middle" x="2389" y="-62.6" font-family="Times,serif" font-size="14.00">LandingPageComponent</text>
</g>
<!-- LandingPageComponent&#45;&gt;AppModule -->
<g id="edge2" class="edge">
<title>LandingPageComponent&#45;&gt;AppModule</title>
<path fill="none" stroke="black" d="M2389,-85.09C2389,-107.01 2389,-140.8 2389,-140.8 2389,-140.8 1376.71,-140.8 1376.71,-140.8"/>
<polygon fill="black" stroke="black" points="1376.71,-137.3 1366.71,-140.8 1376.71,-144.3 1376.71,-137.3"/>
</g>
<!-- LoginComponent -->
<g id="node3" class="node">
<title>LoginComponent</title>
<polygon fill="#ffffb3" stroke="black" points="2293.27,-84.8 2178.73,-84.8 2178.73,-48.8 2293.27,-48.8 2293.27,-84.8"/>
<text text-anchor="middle" x="2236" y="-62.6" font-family="Times,serif" font-size="14.00">LoginComponent</text>
</g>
<!-- LoginComponent&#45;&gt;AppModule -->
<g id="edge3" class="edge">
<title>LoginComponent&#45;&gt;AppModule</title>
<path fill="none" stroke="black" d="M2236,-84.83C2236,-105.57 2236,-136.8 2236,-136.8 2236,-136.8 1376.81,-136.8 1376.81,-136.8"/>
<polygon fill="black" stroke="black" points="1376.81,-133.3 1366.81,-136.8 1376.81,-140.3 1376.81,-133.3"/>
</g>
<!-- NavMenuComponent -->
<g id="node4" class="node">
<title>NavMenuComponent</title>
<polygon fill="#ffffb3" stroke="black" points="2160.82,-84.8 2023.18,-84.8 2023.18,-48.8 2160.82,-48.8 2160.82,-84.8"/>
<text text-anchor="middle" x="2092" y="-62.6" font-family="Times,serif" font-size="14.00">NavMenuComponent</text>
</g>
<!-- NavMenuComponent&#45;&gt;AppModule -->
<g id="edge4" class="edge">
<title>NavMenuComponent&#45;&gt;AppModule</title>
<path fill="none" stroke="black" d="M2092,-84.91C2092,-104.14 2092,-131.8 2092,-131.8 2092,-131.8 1376.78,-131.8 1376.78,-131.8"/>
<polygon fill="black" stroke="black" points="1376.78,-128.3 1366.78,-131.8 1376.78,-135.3 1376.78,-128.3"/>
</g>
<!-- RouteCreateComponent -->
<g id="node5" class="node">
<title>RouteCreateComponent</title>
<polygon fill="#ffffb3" stroke="black" points="2005.8,-84.8 1854.2,-84.8 1854.2,-48.8 2005.8,-48.8 2005.8,-84.8"/>
<text text-anchor="middle" x="1930" y="-62.6" font-family="Times,serif" font-size="14.00">RouteCreateComponent</text>
</g>
<!-- RouteCreateComponent&#45;&gt;AppModule -->
<g id="edge5" class="edge">
<title>RouteCreateComponent&#45;&gt;AppModule</title>
<path fill="none" stroke="black" d="M1930,-85.1C1930,-103.07 1930,-127.8 1930,-127.8 1930,-127.8 1377.06,-127.8 1377.06,-127.8"/>
<polygon fill="black" stroke="black" points="1377.06,-124.3 1367.06,-127.8 1377.06,-131.3 1377.06,-124.3"/>
</g>
<!-- RouteDetailsComponent -->
<g id="node6" class="node">
<title>RouteDetailsComponent</title>
<polygon fill="#ffffb3" stroke="black" points="1836.43,-84.8 1681.57,-84.8 1681.57,-48.8 1836.43,-48.8 1836.43,-84.8"/>
<text text-anchor="middle" x="1759" y="-62.6" font-family="Times,serif" font-size="14.00">RouteDetailsComponent</text>
</g>
<!-- RouteDetailsComponent&#45;&gt;AppModule -->
<g id="edge6" class="edge">
<title>RouteDetailsComponent&#45;&gt;AppModule</title>
<path fill="none" stroke="black" d="M1759,-84.83C1759,-101.2 1759,-122.8 1759,-122.8 1759,-122.8 1377.01,-122.8 1377.01,-122.8"/>
<polygon fill="black" stroke="black" points="1377.01,-119.3 1367.01,-122.8 1377.01,-126.3 1377.01,-119.3"/>
</g>
<!-- RouteEditComponent -->
<g id="node7" class="node">
<title>RouteEditComponent</title>
<polygon fill="#ffffb3" stroke="black" points="1664.1,-84.8 1525.9,-84.8 1525.9,-48.8 1664.1,-48.8 1664.1,-84.8"/>
<text text-anchor="middle" x="1595" y="-62.6" font-family="Times,serif" font-size="14.00">RouteEditComponent</text>
</g>
<!-- RouteEditComponent&#45;&gt;AppModule -->
<g id="edge7" class="edge">
<title>RouteEditComponent&#45;&gt;AppModule</title>
<path fill="none" stroke="black" d="M1595,-84.99C1595,-99.98 1595,-118.8 1595,-118.8 1595,-118.8 1376.89,-118.8 1376.89,-118.8"/>
<polygon fill="black" stroke="black" points="1376.89,-115.3 1366.89,-118.8 1376.89,-122.3 1376.89,-115.3"/>
</g>
<!-- RouteManagementComponent -->
<g id="node8" class="node">
<title>RouteManagementComponent</title>
<polygon fill="#ffffb3" stroke="black" points="1507.86,-84.8 1320.14,-84.8 1320.14,-48.8 1507.86,-48.8 1507.86,-84.8"/>
<text text-anchor="middle" x="1414" y="-62.6" font-family="Times,serif" font-size="14.00">RouteManagementComponent</text>
</g>
<!-- RouteManagementComponent&#45;&gt;AppModule -->
<g id="edge8" class="edge">
<title>RouteManagementComponent&#45;&gt;AppModule</title>
<path fill="none" stroke="black" d="M1343.45,-84.91C1343.45,-84.91 1343.45,-103.79 1343.45,-103.79"/>
<polygon fill="black" stroke="black" points="1339.95,-103.79 1343.45,-113.79 1346.95,-103.79 1339.95,-103.79"/>
</g>
<!-- StatisticsComponent -->
<g id="node9" class="node">
<title>StatisticsComponent</title>
<polygon fill="#ffffb3" stroke="black" points="1301.89,-84.8 1170.11,-84.8 1170.11,-48.8 1301.89,-48.8 1301.89,-84.8"/>
<text text-anchor="middle" x="1236" y="-62.6" font-family="Times,serif" font-size="14.00">StatisticsComponent</text>
</g>
<!-- StatisticsComponent&#45;&gt;AppModule -->
<g id="edge9" class="edge">
<title>StatisticsComponent&#45;&gt;AppModule</title>
<path fill="none" stroke="black" d="M1292.56,-84.91C1292.56,-84.91 1292.56,-103.79 1292.56,-103.79"/>
<polygon fill="black" stroke="black" points="1289.06,-103.79 1292.56,-113.79 1296.06,-103.79 1289.06,-103.79"/>
</g>
<!-- StopCreateComponent -->
<g id="node10" class="node">
<title>StopCreateComponent</title>
<polygon fill="#ffffb3" stroke="black" points="1151.54,-84.8 1008.46,-84.8 1008.46,-48.8 1151.54,-48.8 1151.54,-84.8"/>
<text text-anchor="middle" x="1080" y="-62.6" font-family="Times,serif" font-size="14.00">StopCreateComponent</text>
</g>
<!-- StopCreateComponent&#45;&gt;AppModule -->
<g id="edge10" class="edge">
<title>StopCreateComponent&#45;&gt;AppModule</title>
<path fill="none" stroke="black" d="M1080,-84.99C1080,-99.98 1080,-118.8 1080,-118.8 1080,-118.8 1273.16,-118.8 1273.16,-118.8"/>
<polygon fill="black" stroke="black" points="1273.16,-122.3 1283.16,-118.8 1273.16,-115.3 1273.16,-122.3"/>
</g>
<!-- TripCreateComponent -->
<g id="node11" class="node">
<title>TripCreateComponent</title>
<polygon fill="#ffffb3" stroke="black" points="989.97,-84.8 848.03,-84.8 848.03,-48.8 989.97,-48.8 989.97,-84.8"/>
<text text-anchor="middle" x="919" y="-62.6" font-family="Times,serif" font-size="14.00">TripCreateComponent</text>
</g>
<!-- TripCreateComponent&#45;&gt;AppModule -->
<g id="edge11" class="edge">
<title>TripCreateComponent&#45;&gt;AppModule</title>
<path fill="none" stroke="black" d="M919,-84.83C919,-101.2 919,-122.8 919,-122.8 919,-122.8 1273.08,-122.8 1273.08,-122.8"/>
<polygon fill="black" stroke="black" points="1273.08,-126.3 1283.08,-122.8 1273.08,-119.3 1273.08,-126.3"/>
</g>
<!-- TripEditComponent -->
<g id="node12" class="node">
<title>TripEditComponent</title>
<polygon fill="#ffffb3" stroke="black" points="830.27,-84.8 701.73,-84.8 701.73,-48.8 830.27,-48.8 830.27,-84.8"/>
<text text-anchor="middle" x="766" y="-62.6" font-family="Times,serif" font-size="14.00">TripEditComponent</text>
</g>
<!-- TripEditComponent&#45;&gt;AppModule -->
<g id="edge12" class="edge">
<title>TripEditComponent&#45;&gt;AppModule</title>
<path fill="none" stroke="black" d="M766,-85.1C766,-103.07 766,-127.8 766,-127.8 766,-127.8 1272.98,-127.8 1272.98,-127.8"/>
<polygon fill="black" stroke="black" points="1272.98,-131.3 1282.98,-127.8 1272.98,-124.3 1272.98,-131.3"/>
</g>
<!-- UserDetailsComponent -->
<g id="node13" class="node">
<title>UserDetailsComponent</title>
<polygon fill="#ffffb3" stroke="black" points="683.92,-84.8 536.08,-84.8 536.08,-48.8 683.92,-48.8 683.92,-84.8"/>
<text text-anchor="middle" x="610" y="-62.6" font-family="Times,serif" font-size="14.00">UserDetailsComponent</text>
</g>
<!-- UserDetailsComponent&#45;&gt;AppModule -->
<g id="edge13" class="edge">
<title>UserDetailsComponent&#45;&gt;AppModule</title>
<path fill="none" stroke="black" d="M610,-84.91C610,-104.14 610,-131.8 610,-131.8 610,-131.8 1273.21,-131.8 1273.21,-131.8"/>
<polygon fill="black" stroke="black" points="1273.21,-135.3 1283.21,-131.8 1273.21,-128.3 1273.21,-135.3"/>
</g>
<!-- UsersManagementComponent -->
<g id="node14" class="node">
<title>UsersManagementComponent</title>
<polygon fill="#ffffb3" stroke="black" points="518.3,-84.8 331.7,-84.8 331.7,-48.8 518.3,-48.8 518.3,-84.8"/>
<text text-anchor="middle" x="425" y="-62.6" font-family="Times,serif" font-size="14.00">UsersManagementComponent</text>
</g>
<!-- UsersManagementComponent&#45;&gt;AppModule -->
<g id="edge14" class="edge">
<title>UsersManagementComponent&#45;&gt;AppModule</title>
<path fill="none" stroke="black" d="M425,-84.83C425,-105.57 425,-136.8 425,-136.8 425,-136.8 1273.1,-136.8 1273.1,-136.8"/>
<polygon fill="black" stroke="black" points="1273.1,-140.3 1283.1,-136.8 1273.1,-133.3 1273.1,-140.3"/>
</g>
<!-- AppComponent  -->
<g id="node17" class="node">
<title>AppComponent </title>
<polygon fill="#80b1d3" stroke="black" points="1379.44,-214.8 1270.56,-214.8 1270.56,-178.8 1379.44,-178.8 1379.44,-214.8"/>
<text text-anchor="middle" x="1325" y="-192.6" font-family="Times,serif" font-size="14.00">AppComponent </text>
</g>
<!-- AppModule&#45;&gt;AppComponent  -->
<g id="edge16" class="edge">
<title>AppModule&#45;&gt;AppComponent </title>
<path fill="none" stroke="black" stroke-dasharray="1,5" d="M1325,-149.91C1325,-149.91 1325,-168.79 1325,-168.79"/>
<polygon fill="black" stroke="black" points="1321.5,-168.79 1325,-178.79 1328.5,-168.79 1321.5,-168.79"/>
</g>
<!-- TranslocoRootModule -->
<g id="node16" class="node">
<title>TranslocoRootModule</title>
<polygon fill="#8dd3c7" stroke="black" points="166.26,-84.8 163.26,-88.8 142.26,-88.8 139.26,-84.8 23.74,-84.8 23.74,-48.8 166.26,-48.8 166.26,-84.8"/>
<text text-anchor="middle" x="95" y="-62.6" font-family="Times,serif" font-size="14.00">TranslocoRootModule</text>
</g>
<!-- TranslocoRootModule&#45;&gt;AppModule -->
<g id="edge15" class="edge">
<title>TranslocoRootModule&#45;&gt;AppModule</title>
<path fill="none" stroke="black" d="M95,-85.12C95,-108.46 95,-145.8 95,-145.8 95,-145.8 1273.02,-145.8 1273.02,-145.8"/>
<polygon fill="black" stroke="black" points="1273.02,-149.3 1283.02,-145.8 1273.02,-142.3 1273.02,-149.3"/>
</g>
<!-- AuthService -->
<g id="node18" class="node">
<title>AuthService</title>
<ellipse fill="#fdb462" stroke="black" cx="249" cy="-66.8" rx="59.11" ry="18"/>
<text text-anchor="middle" x="249" y="-62.6" font-family="Times,serif" font-size="14.00">AuthService</text>
</g>
<!-- AuthService&#45;&gt;AppModule -->
<g id="edge17" class="edge">
<title>AuthService&#45;&gt;AppModule</title>
<path fill="none" stroke="black" d="M249,-85.09C249,-107.01 249,-140.8 249,-140.8 249,-140.8 1273.15,-140.8 1273.15,-140.8"/>
<polygon fill="black" stroke="black" points="1273.15,-144.3 1283.15,-140.8 1273.15,-137.3 1273.15,-144.3"/>
</g>
</g>
</svg>
