<?xml version="1.0" encoding="UTF-8" standalone="no"?>
<!DOCTYPE svg PUBLIC "-//W3C//DTD SVG 1.1//EN"
 "http://www.w3.org/Graphics/SVG/1.1/DTD/svg11.dtd">
<!-- Generated by graphviz version 5.0.0 (20220707.1540)
 -->
<!-- Title: dependencies Pages: 1 -->
<svg width="2577pt" height="247pt"
 viewBox="0.00 0.00 2577.00 246.80" xmlns="http://www.w3.org/2000/svg" xmlns:xlink="http://www.w3.org/1999/xlink">
<g id="graph0" class="graph" transform="scale(1 1) rotate(0) translate(4 242.8)">
<title>dependencies</title>
<polygon fill="white" stroke="transparent" points="-4,4 -4,-242.8 2573,-242.8 2573,4 -4,4"/>
<text text-anchor="middle" x="1284.5" y="-8.2" font-family="sans-serif" font-size="14.00">dependencies</text>
<g id="clust1" class="cluster">
<title>cluster_AppModule</title>
<polygon fill="none" stroke="black" stroke-dasharray="1,5" points="8,-32.8 8,-230.8 2561,-230.8 2561,-32.8 8,-32.8"/>
</g>
<g id="clust2" class="cluster">
<title>cluster_AppModule_declarations</title>
<polygon fill="none" stroke="black" points="324,-40.8 324,-92.8 2553,-92.8 2553,-40.8 324,-40.8"/>
</g>
<g id="clust20" class="cluster">
<title>cluster_AppModule_providers</title>
<polygon fill="none" stroke="black" points="182,-40.8 182,-92.8 316,-92.8 316,-40.8 182,-40.8"/>
</g>
<g id="clust17" class="cluster">
<title>cluster_AppModule_imports</title>
<polygon fill="none" stroke="black" points="16,-40.8 16,-92.8 174,-92.8 174,-40.8 16,-40.8"/>
</g>
<g id="clust19" class="cluster">
<title>cluster_AppModule_bootstrap</title>
<polygon fill="none" stroke="black" points="1308,-170.8 1308,-222.8 1432,-222.8 1432,-170.8 1308,-170.8"/>
</g>
<!-- AppComponent -->
<g id="node1" class="node">
<title>AppComponent</title>
<polygon fill="#ffffb3" stroke="black" points="2544.94,-84.8 2439.06,-84.8 2439.06,-48.8 2544.94,-48.8 2544.94,-84.8"/>
<text text-anchor="middle" x="2492" y="-62.6" font-family="Times,serif" font-size="14.00">AppComponent</text>
</g>
<!-- AppModule -->
<g id="node15" class="node">
<title>AppModule</title>
<polygon fill="#8dd3c7" stroke="black" points="1411.66,-149.8 1408.66,-153.8 1387.66,-153.8 1384.66,-149.8 1328.34,-149.8 1328.34,-113.8 1411.66,-113.8 1411.66,-149.8"/>
<text text-anchor="middle" x="1370" y="-127.6" font-family="Times,serif" font-size="14.00">AppModule</text>
</g>
<!-- AppComponent&#45;&gt;AppModule -->
<g id="edge1" class="edge">
<title>AppComponent&#45;&gt;AppModule</title>
<path fill="none" stroke="black" d="M2492,-85.12C2492,-108.46 2492,-145.8 2492,-145.8 2492,-145.8 1421.94,-145.8 1421.94,-145.8"/>
<polygon fill="black" stroke="black" points="1421.94,-142.3 1411.94,-145.8 1421.94,-149.3 1421.94,-142.3"/>
</g>
<!-- CounterComponent -->
<g id="node2" class="node">
<title>CounterComponent</title>
<polygon fill="#ffffb3" stroke="black" points="2421.44,-84.8 2294.56,-84.8 2294.56,-48.8 2421.44,-48.8 2421.44,-84.8"/>
<text text-anchor="middle" x="2358" y="-62.6" font-family="Times,serif" font-size="14.00">CounterComponent</text>
</g>
<!-- CounterComponent&#45;&gt;AppModule -->
<g id="edge2" class="edge">
<title>CounterComponent&#45;&gt;AppModule</title>
<path fill="none" stroke="black" d="M2358,-85.09C2358,-107.01 2358,-140.8 2358,-140.8 2358,-140.8 1421.82,-140.8 1421.82,-140.8"/>
<polygon fill="black" stroke="black" points="1421.82,-137.3 1411.82,-140.8 1421.82,-144.3 1421.82,-137.3"/>
</g>
<!-- FetchDataComponent -->
<g id="node3" class="node">
<title>FetchDataComponent</title>
<polygon fill="#ffffb3" stroke="black" points="2276.36,-84.8 2137.64,-84.8 2137.64,-48.8 2276.36,-48.8 2276.36,-84.8"/>
<text text-anchor="middle" x="2207" y="-62.6" font-family="Times,serif" font-size="14.00">FetchDataComponent</text>
</g>
<!-- FetchDataComponent&#45;&gt;AppModule -->
<g id="edge3" class="edge">
<title>FetchDataComponent&#45;&gt;AppModule</title>
<path fill="none" stroke="black" d="M2207,-84.83C2207,-105.57 2207,-136.8 2207,-136.8 2207,-136.8 1421.79,-136.8 1421.79,-136.8"/>
<polygon fill="black" stroke="black" points="1421.79,-133.3 1411.79,-136.8 1421.79,-140.3 1421.79,-133.3"/>
</g>
<!-- HomeComponent -->
<g id="node4" class="node">
<title>HomeComponent</title>
<polygon fill="#ffffb3" stroke="black" points="2119.55,-84.8 2004.45,-84.8 2004.45,-48.8 2119.55,-48.8 2119.55,-84.8"/>
<text text-anchor="middle" x="2062" y="-62.6" font-family="Times,serif" font-size="14.00">HomeComponent</text>
</g>
<!-- HomeComponent&#45;&gt;AppModule -->
<g id="edge4" class="edge">
<title>HomeComponent&#45;&gt;AppModule</title>
<path fill="none" stroke="black" d="M2062,-84.91C2062,-104.14 2062,-131.8 2062,-131.8 2062,-131.8 1421.73,-131.8 1421.73,-131.8"/>
<polygon fill="black" stroke="black" points="1421.73,-128.3 1411.73,-131.8 1421.73,-135.3 1421.73,-128.3"/>
</g>
<!-- LoginComponent -->
<g id="node5" class="node">
<title>LoginComponent</title>
<polygon fill="#ffffb3" stroke="black" points="1986.27,-84.8 1871.73,-84.8 1871.73,-48.8 1986.27,-48.8 1986.27,-84.8"/>
<text text-anchor="middle" x="1929" y="-62.6" font-family="Times,serif" font-size="14.00">LoginComponent</text>
</g>
<!-- LoginComponent&#45;&gt;AppModule -->
<g id="edge5" class="edge">
<title>LoginComponent&#45;&gt;AppModule</title>
<path fill="none" stroke="black" d="M1929,-85.1C1929,-103.07 1929,-127.8 1929,-127.8 1929,-127.8 1422.02,-127.8 1422.02,-127.8"/>
<polygon fill="black" stroke="black" points="1422.02,-124.3 1412.02,-127.8 1422.02,-131.3 1422.02,-124.3"/>
</g>
<!-- NavMenuComponent -->
<g id="node6" class="node">
<title>NavMenuComponent</title>
<polygon fill="#ffffb3" stroke="black" points="1853.82,-84.8 1716.18,-84.8 1716.18,-48.8 1853.82,-48.8 1853.82,-84.8"/>
<text text-anchor="middle" x="1785" y="-62.6" font-family="Times,serif" font-size="14.00">NavMenuComponent</text>
</g>
<!-- NavMenuComponent&#45;&gt;AppModule -->
<g id="edge6" class="edge">
<title>NavMenuComponent&#45;&gt;AppModule</title>
<path fill="none" stroke="black" d="M1785,-84.83C1785,-101.2 1785,-122.8 1785,-122.8 1785,-122.8 1421.69,-122.8 1421.69,-122.8"/>
<polygon fill="black" stroke="black" points="1421.69,-119.3 1411.69,-122.8 1421.69,-126.3 1421.69,-119.3"/>
</g>
<!-- RouteCreateComponent -->
<g id="node7" class="node">
<title>RouteCreateComponent</title>
<polygon fill="#ffffb3" stroke="black" points="1698.8,-84.8 1547.2,-84.8 1547.2,-48.8 1698.8,-48.8 1698.8,-84.8"/>
<text text-anchor="middle" x="1623" y="-62.6" font-family="Times,serif" font-size="14.00">RouteCreateComponent</text>
</g>
<!-- RouteCreateComponent&#45;&gt;AppModule -->
<g id="edge7" class="edge">
<title>RouteCreateComponent&#45;&gt;AppModule</title>
<path fill="none" stroke="black" d="M1623,-84.99C1623,-99.98 1623,-118.8 1623,-118.8 1623,-118.8 1421.78,-118.8 1421.78,-118.8"/>
<polygon fill="black" stroke="black" points="1421.78,-115.3 1411.78,-118.8 1421.78,-122.3 1421.78,-115.3"/>
</g>
<!-- RouteDetailsComponent -->
<g id="node8" class="node">
<title>RouteDetailsComponent</title>
<polygon fill="#ffffb3" stroke="black" points="1529.43,-84.8 1374.57,-84.8 1374.57,-48.8 1529.43,-48.8 1529.43,-84.8"/>
<text text-anchor="middle" x="1452" y="-62.6" font-family="Times,serif" font-size="14.00">RouteDetailsComponent</text>
</g>
<!-- RouteDetailsComponent&#45;&gt;AppModule -->
<g id="edge8" class="edge">
<title>RouteDetailsComponent&#45;&gt;AppModule</title>
<path fill="none" stroke="black" d="M1393.31,-84.91C1393.31,-84.91 1393.31,-103.79 1393.31,-103.79"/>
<polygon fill="black" stroke="black" points="1389.81,-103.79 1393.31,-113.79 1396.81,-103.79 1389.81,-103.79"/>
</g>
<!-- RouteEditComponent -->
<g id="node9" class="node">
<title>RouteEditComponent</title>
<polygon fill="#ffffb3" stroke="black" points="1357.1,-84.8 1218.9,-84.8 1218.9,-48.8 1357.1,-48.8 1357.1,-84.8"/>
<text text-anchor="middle" x="1288" y="-62.6" font-family="Times,serif" font-size="14.00">RouteEditComponent</text>
</g>
<!-- RouteEditComponent&#45;&gt;AppModule -->
<g id="edge9" class="edge">
<title>RouteEditComponent&#45;&gt;AppModule</title>
<path fill="none" stroke="black" d="M1342.61,-84.91C1342.61,-84.91 1342.61,-103.79 1342.61,-103.79"/>
<polygon fill="black" stroke="black" points="1339.11,-103.79 1342.61,-113.79 1346.11,-103.79 1339.11,-103.79"/>
</g>
<!-- RouteManagementComponent -->
<g id="node10" class="node">
<title>RouteManagementComponent</title>
<polygon fill="#ffffb3" stroke="black" points="1200.86,-84.8 1013.14,-84.8 1013.14,-48.8 1200.86,-48.8 1200.86,-84.8"/>
<text text-anchor="middle" x="1107" y="-62.6" font-family="Times,serif" font-size="14.00">RouteManagementComponent</text>
</g>
<!-- RouteManagementComponent&#45;&gt;AppModule -->
<g id="edge10" class="edge">
<title>RouteManagementComponent&#45;&gt;AppModule</title>
<path fill="none" stroke="black" d="M1107,-84.99C1107,-99.98 1107,-118.8 1107,-118.8 1107,-118.8 1318.33,-118.8 1318.33,-118.8"/>
<polygon fill="black" stroke="black" points="1318.33,-122.3 1328.33,-118.8 1318.33,-115.3 1318.33,-122.3"/>
</g>
<!-- StatisticsComponent -->
<g id="node11" class="node">
<title>StatisticsComponent</title>
<polygon fill="#ffffb3" stroke="black" points="994.89,-84.8 863.11,-84.8 863.11,-48.8 994.89,-48.8 994.89,-84.8"/>
<text text-anchor="middle" x="929" y="-62.6" font-family="Times,serif" font-size="14.00">StatisticsComponent</text>
</g>
<!-- StatisticsComponent&#45;&gt;AppModule -->
<g id="edge11" class="edge">
<title>StatisticsComponent&#45;&gt;AppModule</title>
<path fill="none" stroke="black" d="M929,-84.83C929,-101.2 929,-122.8 929,-122.8 929,-122.8 1318.11,-122.8 1318.11,-122.8"/>
<polygon fill="black" stroke="black" points="1318.11,-126.3 1328.11,-122.8 1318.11,-119.3 1318.11,-126.3"/>
</g>
<!-- StopCreateComponent -->
<g id="node12" class="node">
<title>StopCreateComponent</title>
<polygon fill="#ffffb3" stroke="black" points="844.54,-84.8 701.46,-84.8 701.46,-48.8 844.54,-48.8 844.54,-84.8"/>
<text text-anchor="middle" x="773" y="-62.6" font-family="Times,serif" font-size="14.00">StopCreateComponent</text>
</g>
<!-- StopCreateComponent&#45;&gt;AppModule -->
<g id="edge12" class="edge">
<title>StopCreateComponent&#45;&gt;AppModule</title>
<path fill="none" stroke="black" d="M773,-85.1C773,-103.07 773,-127.8 773,-127.8 773,-127.8 1318.02,-127.8 1318.02,-127.8"/>
<polygon fill="black" stroke="black" points="1318.02,-131.3 1328.02,-127.8 1318.02,-124.3 1318.02,-131.3"/>
</g>
<!-- UserDetailsComponent -->
<g id="node13" class="node">
<title>UserDetailsComponent</title>
<polygon fill="#ffffb3" stroke="black" points="683.92,-84.8 536.08,-84.8 536.08,-48.8 683.92,-48.8 683.92,-84.8"/>
<text text-anchor="middle" x="610" y="-62.6" font-family="Times,serif" font-size="14.00">UserDetailsComponent</text>
</g>
<!-- UserDetailsComponent&#45;&gt;AppModule -->
<g id="edge13" class="edge">
<title>UserDetailsComponent&#45;&gt;AppModule</title>
<path fill="none" stroke="black" d="M610,-84.91C610,-104.14 610,-131.8 610,-131.8 610,-131.8 1318.33,-131.8 1318.33,-131.8"/>
<polygon fill="black" stroke="black" points="1318.33,-135.3 1328.33,-131.8 1318.33,-128.3 1318.33,-135.3"/>
</g>
<!-- UsersManagementComponent -->
<g id="node14" class="node">
<title>UsersManagementComponent</title>
<polygon fill="#ffffb3" stroke="black" points="518.3,-84.8 331.7,-84.8 331.7,-48.8 518.3,-48.8 518.3,-84.8"/>
<text text-anchor="middle" x="425" y="-62.6" font-family="Times,serif" font-size="14.00">UsersManagementComponent</text>
</g>
<!-- UsersManagementComponent&#45;&gt;AppModule -->
<g id="edge14" class="edge">
<title>UsersManagementComponent&#45;&gt;AppModule</title>
<path fill="none" stroke="black" d="M425,-84.83C425,-105.57 425,-136.8 425,-136.8 425,-136.8 1318.18,-136.8 1318.18,-136.8"/>
<polygon fill="black" stroke="black" points="1318.18,-140.3 1328.18,-136.8 1318.18,-133.3 1318.18,-140.3"/>
</g>
<!-- AppComponent  -->
<g id="node17" class="node">
<title>AppComponent </title>
<polygon fill="#80b1d3" stroke="black" points="1424.44,-214.8 1315.56,-214.8 1315.56,-178.8 1424.44,-178.8 1424.44,-214.8"/>
<text text-anchor="middle" x="1370" y="-192.6" font-family="Times,serif" font-size="14.00">AppComponent </text>
</g>
<!-- AppModule&#45;&gt;AppComponent  -->
<g id="edge16" class="edge">
<title>AppModule&#45;&gt;AppComponent </title>
<path fill="none" stroke="black" stroke-dasharray="1,5" d="M1370,-149.91C1370,-149.91 1370,-168.79 1370,-168.79"/>
<polygon fill="black" stroke="black" points="1366.5,-168.79 1370,-178.79 1373.5,-168.79 1366.5,-168.79"/>
</g>
<!-- TranslocoRootModule -->
<g id="node16" class="node">
<title>TranslocoRootModule</title>
<polygon fill="#8dd3c7" stroke="black" points="166.26,-84.8 163.26,-88.8 142.26,-88.8 139.26,-84.8 23.74,-84.8 23.74,-48.8 166.26,-48.8 166.26,-84.8"/>
<text text-anchor="middle" x="95" y="-62.6" font-family="Times,serif" font-size="14.00">TranslocoRootModule</text>
</g>
<!-- TranslocoRootModule&#45;&gt;AppModule -->
<g id="edge15" class="edge">
<title>TranslocoRootModule&#45;&gt;AppModule</title>
<path fill="none" stroke="black" d="M95,-85.12C95,-108.46 95,-145.8 95,-145.8 95,-145.8 1318.3,-145.8 1318.3,-145.8"/>
<polygon fill="black" stroke="black" points="1318.3,-149.3 1328.3,-145.8 1318.3,-142.3 1318.3,-149.3"/>
</g>
<!-- AuthService -->
<g id="node18" class="node">
<title>AuthService</title>
<ellipse fill="#fdb462" stroke="black" cx="249" cy="-66.8" rx="59.11" ry="18"/>
<text text-anchor="middle" x="249" y="-62.6" font-family="Times,serif" font-size="14.00">AuthService</text>
</g>
<!-- AuthService&#45;&gt;AppModule -->
<g id="edge17" class="edge">
<title>AuthService&#45;&gt;AppModule</title>
<path fill="none" stroke="black" d="M249,-85.09C249,-107.01 249,-140.8 249,-140.8 249,-140.8 1318.1,-140.8 1318.1,-140.8"/>
<polygon fill="black" stroke="black" points="1318.1,-144.3 1328.1,-140.8 1318.1,-137.3 1318.1,-144.3"/>
</g>
</g>
</svg>
