<?xml version="1.0" encoding="UTF-8" standalone="no"?>
<!DOCTYPE svg PUBLIC "-//W3C//DTD SVG 1.1//EN"
 "http://www.w3.org/Graphics/SVG/1.1/DTD/svg11.dtd">
<!-- Generated by graphviz version 5.0.0 (20220707.1540)
 -->
<!-- Title: dependencies Pages: 1 -->
<svg width="2721pt" height="247pt"
 viewBox="0.00 0.00 2721.00 246.80" xmlns="http://www.w3.org/2000/svg" xmlns:xlink="http://www.w3.org/1999/xlink">
<g id="graph0" class="graph" transform="scale(1 1) rotate(0) translate(4 242.8)">
<title>dependencies</title>
<polygon fill="white" stroke="transparent" points="-4,4 -4,-242.8 2717,-242.8 2717,4 -4,4"/>
<text text-anchor="middle" x="1356.5" y="-8.2" font-family="sans-serif" font-size="14.00">dependencies</text>
<g id="clust1" class="cluster">
<title>cluster_AppModule</title>
<polygon fill="none" stroke="black" stroke-dasharray="1,5" points="8,-32.8 8,-230.8 2561,-230.8 2561,-32.8 8,-32.8"/>
</g>
<g id="clust2" class="cluster">
<title>cluster_AppModule_declarations</title>
<polygon fill="none" stroke="black" points="324,-40.8 324,-92.8 2553,-92.8 2553,-40.8 324,-40.8"/>
</g>
<g id="clust17" class="cluster">
<title>cluster_AppModule_imports</title>
<polygon fill="none" stroke="black" points="158,-40.8 158,-92.8 316,-92.8 316,-40.8 158,-40.8"/>
</g>
<g id="clust19" class="cluster">
<title>cluster_AppModule_bootstrap</title>
<polygon fill="none" stroke="black" points="1994,-170.8 1994,-222.8 2118,-222.8 2118,-170.8 1994,-170.8"/>
</g>
<g id="clust20" class="cluster">
<title>cluster_AppModule_providers</title>
<polygon fill="none" stroke="black" points="16,-40.8 16,-92.8 150,-92.8 150,-40.8 16,-40.8"/>
</g>
<g id="clust21" class="cluster">
<title>cluster_AppServerModule</title>
<polygon fill="none" stroke="black" stroke-dasharray="1,5" points="2569,-170.8 2569,-222.8 2705,-222.8 2705,-170.8 2569,-170.8"/>
</g>
<!-- AppComponent -->
<g id="node1" class="node">
<title>AppComponent</title>
<polygon fill="#ffffb3" stroke="black" points="2544.94,-84.8 2439.06,-84.8 2439.06,-48.8 2544.94,-48.8 2544.94,-84.8"/>
<text text-anchor="middle" x="2492" y="-62.6" font-family="Times,serif" font-size="14.00">AppComponent</text>
</g>
<!-- AppModule -->
<g id="node15" class="node">
<title>AppModule</title>
<polygon fill="#8dd3c7" stroke="black" points="1578.66,-149.8 1575.66,-153.8 1554.66,-153.8 1551.66,-149.8 1495.34,-149.8 1495.34,-113.8 1578.66,-113.8 1578.66,-149.8"/>
<text text-anchor="middle" x="1537" y="-127.6" font-family="Times,serif" font-size="14.00">AppModule</text>
</g>
<!-- AppComponent&#45;&gt;AppModule -->
<g id="edge1" class="edge">
<title>AppComponent&#45;&gt;AppModule</title>
<path fill="none" stroke="black" d="M2492,-85.09C2492,-107.01 2492,-140.8 2492,-140.8 2492,-140.8 1588.96,-140.8 1588.96,-140.8"/>
<polygon fill="black" stroke="black" points="1588.96,-137.3 1578.96,-140.8 1588.96,-144.3 1588.96,-137.3"/>
</g>
<!-- CounterComponent -->
<g id="node2" class="node">
<title>CounterComponent</title>
<polygon fill="#ffffb3" stroke="black" points="2421.44,-84.8 2294.56,-84.8 2294.56,-48.8 2421.44,-48.8 2421.44,-84.8"/>
<text text-anchor="middle" x="2358" y="-62.6" font-family="Times,serif" font-size="14.00">CounterComponent</text>
</g>
<!-- CounterComponent&#45;&gt;AppModule -->
<g id="edge2" class="edge">
<title>CounterComponent&#45;&gt;AppModule</title>
<path fill="none" stroke="black" d="M2358,-84.83C2358,-105.57 2358,-136.8 2358,-136.8 2358,-136.8 1588.84,-136.8 1588.84,-136.8"/>
<polygon fill="black" stroke="black" points="1588.84,-133.3 1578.84,-136.8 1588.84,-140.3 1588.84,-133.3"/>
</g>
<!-- FetchDataComponent -->
<g id="node3" class="node">
<title>FetchDataComponent</title>
<polygon fill="#ffffb3" stroke="black" points="2276.36,-84.8 2137.64,-84.8 2137.64,-48.8 2276.36,-48.8 2276.36,-84.8"/>
<text text-anchor="middle" x="2207" y="-62.6" font-family="Times,serif" font-size="14.00">FetchDataComponent</text>
</g>
<!-- FetchDataComponent&#45;&gt;AppModule -->
<g id="edge3" class="edge">
<title>FetchDataComponent&#45;&gt;AppModule</title>
<path fill="none" stroke="black" d="M2207,-84.91C2207,-104.14 2207,-131.8 2207,-131.8 2207,-131.8 1588.91,-131.8 1588.91,-131.8"/>
<polygon fill="black" stroke="black" points="1588.91,-128.3 1578.91,-131.8 1588.91,-135.3 1588.91,-128.3"/>
</g>
<!-- HomeComponent -->
<g id="node4" class="node">
<title>HomeComponent</title>
<polygon fill="#ffffb3" stroke="black" points="2119.55,-84.8 2004.45,-84.8 2004.45,-48.8 2119.55,-48.8 2119.55,-84.8"/>
<text text-anchor="middle" x="2062" y="-62.6" font-family="Times,serif" font-size="14.00">HomeComponent</text>
</g>
<!-- HomeComponent&#45;&gt;AppModule -->
<g id="edge4" class="edge">
<title>HomeComponent&#45;&gt;AppModule</title>
<path fill="none" stroke="black" d="M2057.35,-85.1C2057.35,-103.07 2057.35,-127.8 2057.35,-127.8 2057.35,-127.8 1588.7,-127.8 1588.7,-127.8"/>
<polygon fill="black" stroke="black" points="1588.7,-124.3 1578.7,-127.8 1588.7,-131.3 1588.7,-124.3"/>
</g>
<!-- LoginComponent -->
<g id="node5" class="node">
<title>LoginComponent</title>
<polygon fill="#ffffb3" stroke="black" points="1986.27,-84.8 1871.73,-84.8 1871.73,-48.8 1986.27,-48.8 1986.27,-84.8"/>
<text text-anchor="middle" x="1929" y="-62.6" font-family="Times,serif" font-size="14.00">LoginComponent</text>
</g>
<!-- LoginComponent&#45;&gt;AppModule -->
<g id="edge5" class="edge">
<title>LoginComponent&#45;&gt;AppModule</title>
<path fill="none" stroke="black" d="M1929,-84.83C1929,-101.2 1929,-122.8 1929,-122.8 1929,-122.8 1588.95,-122.8 1588.95,-122.8"/>
<polygon fill="black" stroke="black" points="1588.95,-119.3 1578.95,-122.8 1588.95,-126.3 1588.95,-119.3"/>
</g>
<!-- NavMenuComponent -->
<g id="node6" class="node">
<title>NavMenuComponent</title>
<polygon fill="#ffffb3" stroke="black" points="1853.82,-84.8 1716.18,-84.8 1716.18,-48.8 1853.82,-48.8 1853.82,-84.8"/>
<text text-anchor="middle" x="1785" y="-62.6" font-family="Times,serif" font-size="14.00">NavMenuComponent</text>
</g>
<!-- NavMenuComponent&#45;&gt;AppModule -->
<g id="edge6" class="edge">
<title>NavMenuComponent&#45;&gt;AppModule</title>
<path fill="none" stroke="black" d="M1785,-84.99C1785,-99.98 1785,-118.8 1785,-118.8 1785,-118.8 1588.79,-118.8 1588.79,-118.8"/>
<polygon fill="black" stroke="black" points="1588.79,-115.3 1578.79,-118.8 1588.79,-122.3 1588.79,-115.3"/>
</g>
<!-- RouteCreateComponent -->
<g id="node7" class="node">
<title>RouteCreateComponent</title>
<polygon fill="#ffffb3" stroke="black" points="1698.8,-84.8 1547.2,-84.8 1547.2,-48.8 1698.8,-48.8 1698.8,-84.8"/>
<text text-anchor="middle" x="1623" y="-62.6" font-family="Times,serif" font-size="14.00">RouteCreateComponent</text>
</g>
<!-- RouteCreateComponent&#45;&gt;AppModule -->
<g id="edge7" class="edge">
<title>RouteCreateComponent&#45;&gt;AppModule</title>
<path fill="none" stroke="black" d="M1563.09,-84.91C1563.09,-84.91 1563.09,-103.79 1563.09,-103.79"/>
<polygon fill="black" stroke="black" points="1559.59,-103.79 1563.09,-113.79 1566.59,-103.79 1559.59,-103.79"/>
</g>
<!-- RouteDetailsComponent -->
<g id="node8" class="node">
<title>RouteDetailsComponent</title>
<polygon fill="#ffffb3" stroke="black" points="1529.43,-84.8 1374.57,-84.8 1374.57,-48.8 1529.43,-48.8 1529.43,-84.8"/>
<text text-anchor="middle" x="1452" y="-62.6" font-family="Times,serif" font-size="14.00">RouteDetailsComponent</text>
</g>
<!-- RouteDetailsComponent&#45;&gt;AppModule -->
<g id="edge8" class="edge">
<title>RouteDetailsComponent&#45;&gt;AppModule</title>
<path fill="none" stroke="black" d="M1512.19,-84.91C1512.19,-84.91 1512.19,-103.79 1512.19,-103.79"/>
<polygon fill="black" stroke="black" points="1508.69,-103.79 1512.19,-113.79 1515.69,-103.79 1508.69,-103.79"/>
</g>
<!-- RouteEditComponent -->
<g id="node9" class="node">
<title>RouteEditComponent</title>
<polygon fill="#ffffb3" stroke="black" points="1357.1,-84.8 1218.9,-84.8 1218.9,-48.8 1357.1,-48.8 1357.1,-84.8"/>
<text text-anchor="middle" x="1288" y="-62.6" font-family="Times,serif" font-size="14.00">RouteEditComponent</text>
</g>
<!-- RouteEditComponent&#45;&gt;AppModule -->
<g id="edge9" class="edge">
<title>RouteEditComponent&#45;&gt;AppModule</title>
<path fill="none" stroke="black" d="M1288,-84.92C1288,-99.58 1288,-117.8 1288,-117.8 1288,-117.8 1485.32,-117.8 1485.32,-117.8"/>
<polygon fill="black" stroke="black" points="1485.32,-121.3 1495.32,-117.8 1485.32,-114.3 1485.32,-121.3"/>
</g>
<!-- RouteManagementComponent -->
<g id="node10" class="node">
<title>RouteManagementComponent</title>
<polygon fill="#ffffb3" stroke="black" points="1200.86,-84.8 1013.14,-84.8 1013.14,-48.8 1200.86,-48.8 1200.86,-84.8"/>
<text text-anchor="middle" x="1107" y="-62.6" font-family="Times,serif" font-size="14.00">RouteManagementComponent</text>
</g>
<!-- RouteManagementComponent&#45;&gt;AppModule -->
<g id="edge10" class="edge">
<title>RouteManagementComponent&#45;&gt;AppModule</title>
<path fill="none" stroke="black" d="M1107,-84.81C1107,-100.85 1107,-121.8 1107,-121.8 1107,-121.8 1484.99,-121.8 1484.99,-121.8"/>
<polygon fill="black" stroke="black" points="1484.99,-125.3 1494.99,-121.8 1484.99,-118.3 1484.99,-125.3"/>
</g>
<!-- StatisticsComponent -->
<g id="node11" class="node">
<title>StatisticsComponent</title>
<polygon fill="#ffffb3" stroke="black" points="994.89,-84.8 863.11,-84.8 863.11,-48.8 994.89,-48.8 994.89,-84.8"/>
<text text-anchor="middle" x="929" y="-62.6" font-family="Times,serif" font-size="14.00">StatisticsComponent</text>
</g>
<!-- StatisticsComponent&#45;&gt;AppModule -->
<g id="edge11" class="edge">
<title>StatisticsComponent&#45;&gt;AppModule</title>
<path fill="none" stroke="black" d="M929,-84.82C929,-102.17 929,-125.8 929,-125.8 929,-125.8 1485.21,-125.8 1485.21,-125.8"/>
<polygon fill="black" stroke="black" points="1485.21,-129.3 1495.21,-125.8 1485.21,-122.3 1485.21,-129.3"/>
</g>
<!-- StopCreateComponent -->
<g id="node12" class="node">
<title>StopCreateComponent</title>
<polygon fill="#ffffb3" stroke="black" points="844.54,-84.8 701.46,-84.8 701.46,-48.8 844.54,-48.8 844.54,-84.8"/>
<text text-anchor="middle" x="773" y="-62.6" font-family="Times,serif" font-size="14.00">StopCreateComponent</text>
</g>
<!-- StopCreateComponent&#45;&gt;AppModule -->
<g id="edge12" class="edge">
<title>StopCreateComponent&#45;&gt;AppModule</title>
<path fill="none" stroke="black" d="M773,-85.02C773,-103.63 773,-129.8 773,-129.8 773,-129.8 1485.11,-129.8 1485.11,-129.8"/>
<polygon fill="black" stroke="black" points="1485.11,-133.3 1495.11,-129.8 1485.11,-126.3 1485.11,-133.3"/>
</g>
<!-- UserDetailsComponent -->
<g id="node13" class="node">
<title>UserDetailsComponent</title>
<polygon fill="#ffffb3" stroke="black" points="683.92,-84.8 536.08,-84.8 536.08,-48.8 683.92,-48.8 683.92,-84.8"/>
<text text-anchor="middle" x="610" y="-62.6" font-family="Times,serif" font-size="14.00">UserDetailsComponent</text>
</g>
<!-- UserDetailsComponent&#45;&gt;AppModule -->
<g id="edge13" class="edge">
<title>UserDetailsComponent&#45;&gt;AppModule</title>
<path fill="none" stroke="black" d="M610,-85.11C610,-104.95 610,-133.8 610,-133.8 610,-133.8 1485.06,-133.8 1485.06,-133.8"/>
<polygon fill="black" stroke="black" points="1485.06,-137.3 1495.06,-133.8 1485.06,-130.3 1485.06,-137.3"/>
</g>
<!-- UsersManagementComponent -->
<g id="node14" class="node">
<title>UsersManagementComponent</title>
<polygon fill="#ffffb3" stroke="black" points="518.3,-84.8 331.7,-84.8 331.7,-48.8 518.3,-48.8 518.3,-84.8"/>
<text text-anchor="middle" x="425" y="-62.6" font-family="Times,serif" font-size="14.00">UsersManagementComponent</text>
</g>
<!-- UsersManagementComponent&#45;&gt;AppModule -->
<g id="edge14" class="edge">
<title>UsersManagementComponent&#45;&gt;AppModule</title>
<path fill="none" stroke="black" d="M425,-85.08C425,-106.12 425,-137.8 425,-137.8 425,-137.8 1485.1,-137.8 1485.1,-137.8"/>
<polygon fill="black" stroke="black" points="1485.1,-141.3 1495.1,-137.8 1485.1,-134.3 1485.1,-141.3"/>
</g>
<!-- AppComponent  -->
<g id="node17" class="node">
<title>AppComponent </title>
<polygon fill="#80b1d3" stroke="black" points="2110.44,-214.8 2001.56,-214.8 2001.56,-178.8 2110.44,-178.8 2110.44,-214.8"/>
<text text-anchor="middle" x="2056" y="-192.6" font-family="Times,serif" font-size="14.00">AppComponent </text>
</g>
<!-- AppModule&#45;&gt;AppComponent  -->
<g id="edge16" class="edge">
<title>AppModule&#45;&gt;AppComponent </title>
<path fill="none" stroke="black" stroke-dasharray="1,5" d="M1537,-149.91C1537,-169.14 1537,-196.8 1537,-196.8 1537,-196.8 1991.44,-196.8 1991.44,-196.8"/>
<polygon fill="black" stroke="black" points="1991.44,-200.3 2001.44,-196.8 1991.44,-193.3 1991.44,-200.3"/>
</g>
<!-- AppServerModule -->
<g id="node19" class="node">
<title>AppServerModule</title>
<polygon fill="#8dd3c7" stroke="black" points="2697.2,-214.8 2694.2,-218.8 2673.2,-218.8 2670.2,-214.8 2576.8,-214.8 2576.8,-178.8 2697.2,-178.8 2697.2,-214.8"/>
<text text-anchor="middle" x="2637" y="-192.6" font-family="Times,serif" font-size="14.00">AppServerModule</text>
</g>
<!-- AppModule&#45;&gt;AppServerModule -->
<g id="edge18" class="edge">
<title>AppModule&#45;&gt;AppServerModule</title>
<path fill="none" stroke="black" d="M1578.78,-145.8C1779.71,-145.8 2637,-145.8 2637,-145.8 2637,-145.8 2637,-168.68 2637,-168.68"/>
<polygon fill="black" stroke="black" points="2633.5,-168.68 2637,-178.68 2640.5,-168.68 2633.5,-168.68"/>
</g>
<!-- TranslocoRootModule -->
<g id="node16" class="node">
<title>TranslocoRootModule</title>
<polygon fill="#8dd3c7" stroke="black" points="308.26,-84.8 305.26,-88.8 284.26,-88.8 281.26,-84.8 165.74,-84.8 165.74,-48.8 308.26,-48.8 308.26,-84.8"/>
<text text-anchor="middle" x="237" y="-62.6" font-family="Times,serif" font-size="14.00">TranslocoRootModule</text>
</g>
<!-- TranslocoRootModule&#45;&gt;AppModule -->
<g id="edge15" class="edge">
<title>TranslocoRootModule&#45;&gt;AppModule</title>
<path fill="none" stroke="black" d="M237,-84.96C237,-107.15 237,-141.8 237,-141.8 237,-141.8 1485.22,-141.8 1485.22,-141.8"/>
<polygon fill="black" stroke="black" points="1485.22,-145.3 1495.22,-141.8 1485.22,-138.3 1485.22,-145.3"/>
</g>
<!-- AuthService -->
<g id="node18" class="node">
<title>AuthService</title>
<ellipse fill="#fdb462" stroke="black" cx="83" cy="-66.8" rx="59.11" ry="18"/>
<text text-anchor="middle" x="83" y="-62.6" font-family="Times,serif" font-size="14.00">AuthService</text>
</g>
<!-- AuthService&#45;&gt;AppModule -->
<g id="edge17" class="edge">
<title>AuthService&#45;&gt;AppModule</title>
<path fill="none" stroke="black" d="M83,-85.12C83,-108.46 83,-145.8 83,-145.8 83,-145.8 1485.05,-145.8 1485.05,-145.8"/>
<polygon fill="black" stroke="black" points="1485.05,-149.3 1495.05,-145.8 1485.05,-142.3 1485.05,-149.3"/>
</g>
<!-- AppServerModule&#45;&gt;AppComponent  -->
<g id="edge19" class="edge">
<title>AppServerModule&#45;&gt;AppComponent </title>
<path fill="none" stroke="black" stroke-dasharray="1,5" d="M2576.74,-196.8C2576.74,-196.8 2120.49,-196.8 2120.49,-196.8"/>
<polygon fill="black" stroke="black" points="2120.49,-193.3 2110.49,-196.8 2120.49,-200.3 2120.49,-193.3"/>
</g>
</g>
</svg>
