<?xml version="1.0" encoding="UTF-8" standalone="no"?>
<!DOCTYPE svg PUBLIC "-//W3C//DTD SVG 1.1//EN"
 "http://www.w3.org/Graphics/SVG/1.1/DTD/svg11.dtd">
<!-- Generated by graphviz version 5.0.0 (20220707.1540)
 -->
<!-- Title: dependencies Pages: 1 -->
<svg width="2593pt" height="247pt"
 viewBox="0.00 0.00 2593.00 246.80" xmlns="http://www.w3.org/2000/svg" xmlns:xlink="http://www.w3.org/1999/xlink">
<g id="graph0" class="graph" transform="scale(1 1) rotate(0) translate(4 242.8)">
<title>dependencies</title>
<polygon fill="white" stroke="transparent" points="-4,4 -4,-242.8 2589,-242.8 2589,4 -4,4"/>
<text text-anchor="middle" x="1292.5" y="-8.2" font-family="sans-serif" font-size="14.00">dependencies</text>
<g id="clust1" class="cluster">
<title>cluster_AppModule</title>
<polygon fill="none" stroke="black" stroke-dasharray="1,5" points="8,-32.8 8,-230.8 2433,-230.8 2433,-32.8 8,-32.8"/>
</g>
<g id="clust2" class="cluster">
<title>cluster_AppModule_declarations</title>
<polygon fill="none" stroke="black" points="324,-40.8 324,-92.8 2425,-92.8 2425,-40.8 324,-40.8"/>
</g>
<g id="clust16" class="cluster">
<title>cluster_AppModule_imports</title>
<polygon fill="none" stroke="black" points="158,-40.8 158,-92.8 316,-92.8 316,-40.8 158,-40.8"/>
</g>
<g id="clust18" class="cluster">
<title>cluster_AppModule_bootstrap</title>
<polygon fill="none" stroke="black" points="1826,-170.8 1826,-222.8 1950,-222.8 1950,-170.8 1826,-170.8"/>
</g>
<g id="clust19" class="cluster">
<title>cluster_AppModule_providers</title>
<polygon fill="none" stroke="black" points="16,-40.8 16,-92.8 150,-92.8 150,-40.8 16,-40.8"/>
</g>
<g id="clust20" class="cluster">
<title>cluster_AppServerModule</title>
<polygon fill="none" stroke="black" stroke-dasharray="1,5" points="2441,-170.8 2441,-222.8 2577,-222.8 2577,-170.8 2441,-170.8"/>
</g>
<!-- AppComponent -->
<g id="node1" class="node">
<title>AppComponent</title>
<polygon fill="#ffffb3" stroke="black" points="2416.94,-84.8 2311.06,-84.8 2311.06,-48.8 2416.94,-48.8 2416.94,-84.8"/>
<text text-anchor="middle" x="2364" y="-62.6" font-family="Times,serif" font-size="14.00">AppComponent</text>
</g>
<!-- AppModule -->
<g id="node14" class="node">
<title>AppModule</title>
<polygon fill="#8dd3c7" stroke="black" points="1455.66,-149.8 1452.66,-153.8 1431.66,-153.8 1428.66,-149.8 1372.34,-149.8 1372.34,-113.8 1455.66,-113.8 1455.66,-149.8"/>
<text text-anchor="middle" x="1414" y="-127.6" font-family="Times,serif" font-size="14.00">AppModule</text>
</g>
<!-- AppComponent&#45;&gt;AppModule -->
<g id="edge1" class="edge">
<title>AppComponent&#45;&gt;AppModule</title>
<path fill="none" stroke="black" d="M2364,-85.08C2364,-106.12 2364,-137.8 2364,-137.8 2364,-137.8 1465.74,-137.8 1465.74,-137.8"/>
<polygon fill="black" stroke="black" points="1465.74,-134.3 1455.74,-137.8 1465.74,-141.3 1465.74,-134.3"/>
</g>
<!-- LoginComponent -->
<g id="node2" class="node">
<title>LoginComponent</title>
<polygon fill="#ffffb3" stroke="black" points="2293.27,-84.8 2178.73,-84.8 2178.73,-48.8 2293.27,-48.8 2293.27,-84.8"/>
<text text-anchor="middle" x="2236" y="-62.6" font-family="Times,serif" font-size="14.00">LoginComponent</text>
</g>
<!-- LoginComponent&#45;&gt;AppModule -->
<g id="edge2" class="edge">
<title>LoginComponent&#45;&gt;AppModule</title>
<path fill="none" stroke="black" d="M2236,-85.11C2236,-104.95 2236,-133.8 2236,-133.8 2236,-133.8 1465.89,-133.8 1465.89,-133.8"/>
<polygon fill="black" stroke="black" points="1465.89,-130.3 1455.89,-133.8 1465.89,-137.3 1465.89,-130.3"/>
</g>
<!-- NavMenuComponent -->
<g id="node3" class="node">
<title>NavMenuComponent</title>
<polygon fill="#ffffb3" stroke="black" points="2160.82,-84.8 2023.18,-84.8 2023.18,-48.8 2160.82,-48.8 2160.82,-84.8"/>
<text text-anchor="middle" x="2092" y="-62.6" font-family="Times,serif" font-size="14.00">NavMenuComponent</text>
</g>
<!-- NavMenuComponent&#45;&gt;AppModule -->
<g id="edge3" class="edge">
<title>NavMenuComponent&#45;&gt;AppModule</title>
<path fill="none" stroke="black" d="M2092,-85.02C2092,-103.63 2092,-129.8 2092,-129.8 2092,-129.8 1465.9,-129.8 1465.9,-129.8"/>
<polygon fill="black" stroke="black" points="1465.9,-126.3 1455.9,-129.8 1465.9,-133.3 1465.9,-126.3"/>
</g>
<!-- RouteCreateComponent -->
<g id="node4" class="node">
<title>RouteCreateComponent</title>
<polygon fill="#ffffb3" stroke="black" points="2005.8,-84.8 1854.2,-84.8 1854.2,-48.8 2005.8,-48.8 2005.8,-84.8"/>
<text text-anchor="middle" x="1930" y="-62.6" font-family="Times,serif" font-size="14.00">RouteCreateComponent</text>
</g>
<!-- RouteCreateComponent&#45;&gt;AppModule -->
<g id="edge4" class="edge">
<title>RouteCreateComponent&#45;&gt;AppModule</title>
<path fill="none" stroke="black" d="M1898.41,-84.82C1898.41,-102.17 1898.41,-125.8 1898.41,-125.8 1898.41,-125.8 1465.72,-125.8 1465.72,-125.8"/>
<polygon fill="black" stroke="black" points="1465.72,-122.3 1455.72,-125.8 1465.72,-129.3 1465.72,-122.3"/>
</g>
<!-- RouteDetailsComponent -->
<g id="node5" class="node">
<title>RouteDetailsComponent</title>
<polygon fill="#ffffb3" stroke="black" points="1836.43,-84.8 1681.57,-84.8 1681.57,-48.8 1836.43,-48.8 1836.43,-84.8"/>
<text text-anchor="middle" x="1759" y="-62.6" font-family="Times,serif" font-size="14.00">RouteDetailsComponent</text>
</g>
<!-- RouteDetailsComponent&#45;&gt;AppModule -->
<g id="edge5" class="edge">
<title>RouteDetailsComponent&#45;&gt;AppModule</title>
<path fill="none" stroke="black" d="M1757.66,-84.81C1757.66,-100.85 1757.66,-121.8 1757.66,-121.8 1757.66,-121.8 1465.8,-121.8 1465.8,-121.8"/>
<polygon fill="black" stroke="black" points="1465.8,-118.3 1455.8,-121.8 1465.8,-125.3 1465.8,-118.3"/>
</g>
<!-- RouteEditComponent -->
<g id="node6" class="node">
<title>RouteEditComponent</title>
<polygon fill="#ffffb3" stroke="black" points="1664.1,-84.8 1525.9,-84.8 1525.9,-48.8 1664.1,-48.8 1664.1,-84.8"/>
<text text-anchor="middle" x="1595" y="-62.6" font-family="Times,serif" font-size="14.00">RouteEditComponent</text>
</g>
<!-- RouteEditComponent&#45;&gt;AppModule -->
<g id="edge6" class="edge">
<title>RouteEditComponent&#45;&gt;AppModule</title>
<path fill="none" stroke="black" d="M1595,-84.92C1595,-99.58 1595,-117.8 1595,-117.8 1595,-117.8 1465.98,-117.8 1465.98,-117.8"/>
<polygon fill="black" stroke="black" points="1465.98,-114.3 1455.98,-117.8 1465.98,-121.3 1465.98,-114.3"/>
</g>
<!-- RouteManagementComponent -->
<g id="node7" class="node">
<title>RouteManagementComponent</title>
<polygon fill="#ffffb3" stroke="black" points="1507.86,-84.8 1320.14,-84.8 1320.14,-48.8 1507.86,-48.8 1507.86,-84.8"/>
<text text-anchor="middle" x="1414" y="-62.6" font-family="Times,serif" font-size="14.00">RouteManagementComponent</text>
</g>
<!-- RouteManagementComponent&#45;&gt;AppModule -->
<g id="edge7" class="edge">
<title>RouteManagementComponent&#45;&gt;AppModule</title>
<path fill="none" stroke="black" d="M1414,-84.91C1414,-84.91 1414,-103.79 1414,-103.79"/>
<polygon fill="black" stroke="black" points="1410.5,-103.79 1414,-113.79 1417.5,-103.79 1410.5,-103.79"/>
</g>
<!-- StatisticsComponent -->
<g id="node8" class="node">
<title>StatisticsComponent</title>
<polygon fill="#ffffb3" stroke="black" points="1301.89,-84.8 1170.11,-84.8 1170.11,-48.8 1301.89,-48.8 1301.89,-84.8"/>
<text text-anchor="middle" x="1236" y="-62.6" font-family="Times,serif" font-size="14.00">StatisticsComponent</text>
</g>
<!-- StatisticsComponent&#45;&gt;AppModule -->
<g id="edge8" class="edge">
<title>StatisticsComponent&#45;&gt;AppModule</title>
<path fill="none" stroke="black" d="M1236,-84.92C1236,-99.58 1236,-117.8 1236,-117.8 1236,-117.8 1362.27,-117.8 1362.27,-117.8"/>
<polygon fill="black" stroke="black" points="1362.27,-121.3 1372.27,-117.8 1362.27,-114.3 1362.27,-121.3"/>
</g>
<!-- StopCreateComponent -->
<g id="node9" class="node">
<title>StopCreateComponent</title>
<polygon fill="#ffffb3" stroke="black" points="1151.54,-84.8 1008.46,-84.8 1008.46,-48.8 1151.54,-48.8 1151.54,-84.8"/>
<text text-anchor="middle" x="1080" y="-62.6" font-family="Times,serif" font-size="14.00">StopCreateComponent</text>
</g>
<!-- StopCreateComponent&#45;&gt;AppModule -->
<g id="edge9" class="edge">
<title>StopCreateComponent&#45;&gt;AppModule</title>
<path fill="none" stroke="black" d="M1080,-84.81C1080,-100.85 1080,-121.8 1080,-121.8 1080,-121.8 1362.04,-121.8 1362.04,-121.8"/>
<polygon fill="black" stroke="black" points="1362.04,-125.3 1372.04,-121.8 1362.04,-118.3 1362.04,-125.3"/>
</g>
<!-- TripCreateComponent -->
<g id="node10" class="node">
<title>TripCreateComponent</title>
<polygon fill="#ffffb3" stroke="black" points="989.97,-84.8 848.03,-84.8 848.03,-48.8 989.97,-48.8 989.97,-84.8"/>
<text text-anchor="middle" x="919" y="-62.6" font-family="Times,serif" font-size="14.00">TripCreateComponent</text>
</g>
<!-- TripCreateComponent&#45;&gt;AppModule -->
<g id="edge10" class="edge">
<title>TripCreateComponent&#45;&gt;AppModule</title>
<path fill="none" stroke="black" d="M919,-84.82C919,-102.17 919,-125.8 919,-125.8 919,-125.8 1362.22,-125.8 1362.22,-125.8"/>
<polygon fill="black" stroke="black" points="1362.22,-129.3 1372.22,-125.8 1362.22,-122.3 1362.22,-129.3"/>
</g>
<!-- TripEditComponent -->
<g id="node11" class="node">
<title>TripEditComponent</title>
<polygon fill="#ffffb3" stroke="black" points="830.27,-84.8 701.73,-84.8 701.73,-48.8 830.27,-48.8 830.27,-84.8"/>
<text text-anchor="middle" x="766" y="-62.6" font-family="Times,serif" font-size="14.00">TripEditComponent</text>
</g>
<!-- TripEditComponent&#45;&gt;AppModule -->
<g id="edge11" class="edge">
<title>TripEditComponent&#45;&gt;AppModule</title>
<path fill="none" stroke="black" d="M766,-85.02C766,-103.63 766,-129.8 766,-129.8 766,-129.8 1361.98,-129.8 1361.98,-129.8"/>
<polygon fill="black" stroke="black" points="1361.98,-133.3 1371.98,-129.8 1361.98,-126.3 1361.98,-133.3"/>
</g>
<!-- UserDetailsComponent -->
<g id="node12" class="node">
<title>UserDetailsComponent</title>
<polygon fill="#ffffb3" stroke="black" points="683.92,-84.8 536.08,-84.8 536.08,-48.8 683.92,-48.8 683.92,-84.8"/>
<text text-anchor="middle" x="610" y="-62.6" font-family="Times,serif" font-size="14.00">UserDetailsComponent</text>
</g>
<!-- UserDetailsComponent&#45;&gt;AppModule -->
<g id="edge12" class="edge">
<title>UserDetailsComponent&#45;&gt;AppModule</title>
<path fill="none" stroke="black" d="M610,-85.11C610,-104.95 610,-133.8 610,-133.8 610,-133.8 1362.19,-133.8 1362.19,-133.8"/>
<polygon fill="black" stroke="black" points="1362.19,-137.3 1372.19,-133.8 1362.19,-130.3 1362.19,-137.3"/>
</g>
<!-- UsersManagementComponent -->
<g id="node13" class="node">
<title>UsersManagementComponent</title>
<polygon fill="#ffffb3" stroke="black" points="518.3,-84.8 331.7,-84.8 331.7,-48.8 518.3,-48.8 518.3,-84.8"/>
<text text-anchor="middle" x="425" y="-62.6" font-family="Times,serif" font-size="14.00">UsersManagementComponent</text>
</g>
<!-- UsersManagementComponent&#45;&gt;AppModule -->
<g id="edge13" class="edge">
<title>UsersManagementComponent&#45;&gt;AppModule</title>
<path fill="none" stroke="black" d="M425,-85.08C425,-106.12 425,-137.8 425,-137.8 425,-137.8 1362.14,-137.8 1362.14,-137.8"/>
<polygon fill="black" stroke="black" points="1362.14,-141.3 1372.14,-137.8 1362.14,-134.3 1362.14,-141.3"/>
</g>
<!-- AppComponent  -->
<g id="node16" class="node">
<title>AppComponent </title>
<polygon fill="#80b1d3" stroke="black" points="1942.44,-214.8 1833.56,-214.8 1833.56,-178.8 1942.44,-178.8 1942.44,-214.8"/>
<text text-anchor="middle" x="1888" y="-192.6" font-family="Times,serif" font-size="14.00">AppComponent </text>
</g>
<!-- AppModule&#45;&gt;AppComponent  -->
<g id="edge15" class="edge">
<title>AppModule&#45;&gt;AppComponent </title>
<path fill="none" stroke="black" stroke-dasharray="1,5" d="M1455.74,-145.8C1563.98,-145.8 1845.28,-145.8 1845.28,-145.8 1845.28,-145.8 1845.28,-168.68 1845.28,-168.68"/>
<polygon fill="black" stroke="black" points="1841.78,-168.68 1845.28,-178.68 1848.78,-168.68 1841.78,-168.68"/>
</g>
<!-- AppServerModule -->
<g id="node18" class="node">
<title>AppServerModule</title>
<polygon fill="#8dd3c7" stroke="black" points="2569.2,-214.8 2566.2,-218.8 2545.2,-218.8 2542.2,-214.8 2448.8,-214.8 2448.8,-178.8 2569.2,-178.8 2569.2,-214.8"/>
<text text-anchor="middle" x="2509" y="-192.6" font-family="Times,serif" font-size="14.00">AppServerModule</text>
</g>
<!-- AppModule&#45;&gt;AppServerModule -->
<g id="edge17" class="edge">
<title>AppModule&#45;&gt;AppServerModule</title>
<path fill="none" stroke="black" d="M1455.92,-141.8C1656.55,-141.8 2509,-141.8 2509,-141.8 2509,-141.8 2509,-168.79 2509,-168.79"/>
<polygon fill="black" stroke="black" points="2505.5,-168.79 2509,-178.79 2512.5,-168.79 2505.5,-168.79"/>
</g>
<!-- TranslocoRootModule -->
<g id="node15" class="node">
<title>TranslocoRootModule</title>
<polygon fill="#8dd3c7" stroke="black" points="308.26,-84.8 305.26,-88.8 284.26,-88.8 281.26,-84.8 165.74,-84.8 165.74,-48.8 308.26,-48.8 308.26,-84.8"/>
<text text-anchor="middle" x="237" y="-62.6" font-family="Times,serif" font-size="14.00">TranslocoRootModule</text>
</g>
<!-- TranslocoRootModule&#45;&gt;AppModule -->
<g id="edge14" class="edge">
<title>TranslocoRootModule&#45;&gt;AppModule</title>
<path fill="none" stroke="black" d="M237,-84.96C237,-107.15 237,-141.8 237,-141.8 237,-141.8 1362.11,-141.8 1362.11,-141.8"/>
<polygon fill="black" stroke="black" points="1362.11,-145.3 1372.11,-141.8 1362.11,-138.3 1362.11,-145.3"/>
</g>
<!-- AuthService -->
<g id="node17" class="node">
<title>AuthService</title>
<ellipse fill="#fdb462" stroke="black" cx="83" cy="-66.8" rx="59.11" ry="18"/>
<text text-anchor="middle" x="83" y="-62.6" font-family="Times,serif" font-size="14.00">AuthService</text>
</g>
<!-- AuthService&#45;&gt;AppModule -->
<g id="edge16" class="edge">
<title>AuthService&#45;&gt;AppModule</title>
<path fill="none" stroke="black" d="M83,-85.12C83,-108.46 83,-145.8 83,-145.8 83,-145.8 1361.97,-145.8 1361.97,-145.8"/>
<polygon fill="black" stroke="black" points="1361.97,-149.3 1371.97,-145.8 1361.97,-142.3 1361.97,-149.3"/>
</g>
<!-- AppServerModule&#45;&gt;AppComponent  -->
<g id="edge18" class="edge">
<title>AppServerModule&#45;&gt;AppComponent </title>
<path fill="none" stroke="black" stroke-dasharray="1,5" d="M2448.89,-196.8C2448.89,-196.8 1952.76,-196.8 1952.76,-196.8"/>
<polygon fill="black" stroke="black" points="1952.76,-193.3 1942.76,-196.8 1952.76,-200.3 1952.76,-193.3"/>
</g>
</g>
</svg>
